<svg fill="none" height="122" viewBox="0 0 122 122" width="122" xmlns="http://www.w3.org/2000/svg">
    <circle cx="61" cy="61" r="50" stroke="#E2DECD" stroke-width="21" />
    <path
        d="M111 61C111 50.0397 107.399 39.383 100.75 30.6696C94.1014 21.9561 84.7739 15.6687 74.2026 12.7746C63.6313 9.8805 52.4019 10.5401 42.2422 14.6519C32.0824 18.7638 23.5552 26.1 17.9724 35.5319C12.3897 44.9638 10.0607 55.9688 11.3439 66.8538C12.6271 77.7387 17.4513 87.9004 25.0743 95.7755C32.6974 103.651 42.6968 108.803 53.5342 110.439C64.3716 112.076 75.4466 110.106 85.0551 104.833"
        stroke="#064061" stroke-width="21" />
    <path
        d="M111 61C111 52.5669 108.867 44.2708 104.799 36.8835C100.732 29.4962 94.8619 23.2577 87.7357 18.7484C80.6095 14.2391 72.4585 11.6055 64.041 11.0926C55.6235 10.5797 47.213 12.2041 39.592 15.8149C31.971 19.4256 25.387 24.9052 20.4527 31.744C15.5183 38.5828 12.3938 46.5585 11.3699 54.9292C10.346 63.2999 11.456 71.7936 14.5965 79.6202C17.737 87.4467 22.8061 94.3517 29.3321 99.6929"
        stroke="#4EB7F2" stroke-width="21" />
    <path
        d="M111 61C111 50.8288 107.898 40.8996 102.108 32.5373C96.3184 24.175 88.1159 17.7773 78.5953 14.1981C69.0747 10.6189 58.689 10.0284 48.8241 12.5053C38.9592 14.9822 30.0843 20.4088 23.3837 28.0609"
        stroke="#208CC8" stroke-width="21" />
</svg>
